<svg width="259" height="287" viewBox="0 0 259 287" fill="none" xmlns="http://www.w3.org/2000/svg">
<path d="M231.737 0H218.105V13.6316H231.737V0Z" fill="#050606"/>
<path d="M218.105 13.6316H204.474V27.2632H218.105V13.6316Z" fill="#050606"/>
<path d="M231.737 13.6316H218.105V27.2632H231.737V13.6316Z" fill="#F1EA19"/>
<path d="M245.368 13.6316H231.737V27.2632H245.368V13.6316Z" fill="#050606"/>
<path d="M204.474 27.2632H190.842V40.8948H204.474V27.2632Z" fill="#050606"/>
<path d="M218.105 27.2632H204.474V40.8948H218.105V27.2632Z" fill="#F1EA19"/>
<path d="M231.737 27.2632H218.105V40.8948H231.737V27.2632Z" fill="#F58420"/>
<path d="M245.368 27.2632H231.737V40.8948H245.368V27.2632Z" fill="#F58420"/>
<path d="M259 27.2632H245.368V40.8948H259V27.2632Z" fill="#050606"/>
<path d="M190.842 40.8948H177.211V54.5264H190.842V40.8948Z" fill="#050606"/>
<path d="M204.474 40.8948H190.842V54.5264H204.474V40.8948Z" fill="#F1EA19"/>
<path d="M218.105 40.8948H204.474V54.5264H218.105V40.8948Z" fill="#F58420"/>
<path d="M231.737 40.8948H218.105V54.5264H231.737V40.8948Z" fill="#F58420"/>
<path d="M245.368 40.8948H231.737V54.5264H245.368V40.8948Z" fill="#F58420"/>
<path d="M259 40.8948H245.368V54.5264H259V40.8948Z" fill="#050606"/>
<path d="M190.842 54.5264H177.211V68.1579H190.842V54.5264Z" fill="#050606"/>
<path d="M204.474 54.5264H190.842V68.1579H204.474V54.5264Z" fill="#F58420"/>
<path d="M218.105 54.5264H204.474V68.1579H218.105V54.5264Z" fill="#F58420"/>
<path d="M231.737 54.5264H218.105V68.1579H231.737V54.5264Z" fill="#F58420"/>
<path d="M245.368 54.5264H231.737V68.1579H245.368V54.5264Z" fill="#050606"/>
<path d="M190.842 68.158H177.211V81.7895H190.842V68.158Z" fill="#F58420"/>
<path d="M204.474 68.158H190.842V81.7895H204.474V68.158Z" fill="#F58420"/>
<path d="M218.105 68.158H204.474V81.7895H218.105V68.158Z" fill="#F58420"/>
<path d="M231.737 68.158H218.105V81.7895H231.737V68.158Z" fill="#050606"/>
<path d="M190.842 81.7896H177.211V95.4211H190.842V81.7896Z" fill="#F58420"/>
<path d="M204.474 81.7896H190.842V95.4211H204.474V81.7896Z" fill="#F58420"/>
<path d="M218.105 81.7896H204.474V95.4211H218.105V81.7896Z" fill="#050606"/>
<path d="M190.842 95.4211H177.211V109.053H190.842V95.4211Z" fill="#050606"/>
<path d="M204.474 95.4211H190.842V109.053H204.474V95.4211Z" fill="#F58420"/>
<path d="M218.105 95.4211H204.474V109.053H218.105V95.4211Z" fill="#F58420"/>
<path d="M231.737 95.4211H218.105V109.053H231.737V95.4211Z" fill="#050606"/>
<path d="M190.842 109.053H177.211V122.684H190.842V109.053Z" fill="#050606"/>
<path d="M204.474 109.053H190.842V122.684H204.474V109.053Z" fill="#F58420"/>
<path d="M218.105 109.053H204.474V122.684H218.105V109.053Z" fill="#F58420"/>
<path d="M231.737 109.053H218.105V122.684H231.737V109.053Z" fill="#050606"/>
<path d="M190.842 122.684H177.211V136.316H190.842V122.684Z" fill="#050606"/>
<path d="M204.474 122.684H190.842V136.316H204.474V122.684Z" fill="#F58420"/>
<path d="M218.105 122.684H204.474V136.316H218.105V122.684Z" fill="#050606"/>
<path d="M190.842 136.316H177.211V149.947H190.842V136.316Z" fill="#050606"/>
<path d="M204.474 136.316H190.842V149.947H204.474V136.316Z" fill="#050606"/>
<path d="M190.842 149.947H177.211V163.579H190.842V149.947Z" fill="#050606"/>
<path d="M190.842 163.579H177.211V177.21H190.842V163.579Z" fill="#050606"/>
<path d="M190.842 177.21H177.211V190.842H190.842V177.21Z" fill="#050606"/>
<path d="M190.842 190.842H177.211V204.474H190.842V190.842Z" fill="#050606"/>
<path d="M190.842 204.474H177.211V218.105H190.842V204.474Z" fill="#050606"/>
<path d="M190.842 218.105H177.211V231.737H190.842V218.105Z" fill="#050606"/>
<path d="M81.7895 0H68.1579V13.6316H81.7895V0Z" fill="#050606"/>
<path d="M95.4211 0H81.7895V13.6316H95.4211V0Z" fill="#050606"/>
<path d="M68.1579 13.6316H54.5263V27.2632H68.1579V13.6316Z" fill="#050606"/>
<path d="M81.7895 13.6316H68.1579V27.2632H81.7895V13.6316Z" fill="#795649"/>
<path d="M95.4211 13.6316H81.7895V27.2632H95.4211V13.6316Z" fill="#050606"/>
<path d="M68.1579 27.2632H54.5263V40.8948H68.1579V27.2632Z" fill="#050606"/>
<path d="M81.7895 27.2632H68.1579V40.8948H81.7895V27.2632Z" fill="#F1EA19"/>
<path d="M95.4211 27.2632H81.7895V40.8948H95.4211V27.2632Z" fill="#050606"/>
<path d="M54.5263 40.8948H40.8947V54.5264H54.5263V40.8948Z" fill="#050606"/>
<path d="M68.1579 40.8948H54.5263V54.5264H68.1579V40.8948Z" fill="#F1EA19"/>
<path d="M81.7895 40.8948H68.1579V54.5264H81.7895V40.8948Z" fill="#F1EA19"/>
<path d="M95.4211 40.8948H81.7895V54.5264H95.4211V40.8948Z" fill="#050606"/>
<path d="M163.579 40.8948H149.947V54.5264H163.579V40.8948Z" fill="#050606"/>
<path d="M177.211 40.8948H163.579V54.5264H177.211V40.8948Z" fill="#050606"/>
<path d="M54.5263 54.5264H40.8947V68.1579H54.5263V54.5264Z" fill="#050606"/>
<path d="M68.1579 54.5264H54.5263V68.1579H68.1579V54.5264Z" fill="#F1EA19"/>
<path d="M81.7895 54.5264H68.1579V68.1579H81.7895V54.5264Z" fill="#F58420"/>
<path d="M95.4211 54.5264H81.7895V68.1579H95.4211V54.5264Z" fill="#050606"/>
<path d="M136.316 54.5264H122.684V68.1579H136.316V54.5264Z" fill="#050606"/>
<path d="M149.947 54.5264H136.316V68.1579H149.947V54.5264Z" fill="#050606"/>
<path d="M163.579 54.5264H149.947V68.1579H163.579V54.5264Z" fill="#795649"/>
<path d="M177.211 54.5264H163.579V68.1579H177.211V54.5264Z" fill="#795649"/>
<path d="M40.8947 68.158H27.2632V81.7895H40.8947V68.158Z" fill="#050606"/>
<path d="M54.5263 68.158H40.8947V81.7895H54.5263V68.158Z" fill="#F1EA19"/>
<path d="M68.1579 68.158H54.5263V81.7895H68.1579V68.158Z" fill="#F1EA19"/>
<path d="M81.7895 68.158H68.1579V81.7895H81.7895V68.158Z" fill="#F1EA19"/>
<path d="M95.4211 68.158H81.7895V81.7895H95.4211V68.158Z" fill="#F1EA19"/>
<path d="M109.053 68.158H95.4211V81.7895H109.053V68.158Z" fill="#050606"/>
<path d="M122.684 68.158H109.053V81.7895H122.684V68.158Z" fill="#050606"/>
<path d="M136.316 68.158H122.684V81.7895H136.316V68.158Z" fill="#F1EA19"/>
<path d="M149.947 68.158H136.316V81.7895H149.947V68.158Z" fill="#F1EA19"/>
<path d="M163.579 68.158H149.947V81.7895H163.579V68.158Z" fill="#795649"/>
<path d="M177.211 68.158H163.579V81.7895H177.211V68.158Z" fill="#050606"/>
<path d="M27.2632 81.7896H13.6316V95.4211H27.2632V81.7896Z" fill="#050606"/>
<path d="M40.8947 81.7896H27.2632V95.4211H40.8947V81.7896Z" fill="#F1EA19"/>
<path d="M54.5263 81.7896H40.8947V95.4211H54.5263V81.7896Z" fill="#F1EA19"/>
<path d="M68.1579 81.7896H54.5263V95.4211H68.1579V81.7896Z" fill="#F1EA19"/>
<path d="M81.7895 81.7896H68.1579V95.4211H81.7895V81.7896Z" fill="#F1EA19"/>
<path d="M95.4211 81.7896H81.7895V95.4211H95.4211V81.7896Z" fill="#F1EA19"/>
<path d="M109.053 81.7896H95.4211V95.4211H109.053V81.7896Z" fill="#F1EA19"/>
<path d="M122.684 81.7896H109.053V95.4211H122.684V81.7896Z" fill="#F1EA19"/>
<path d="M136.316 81.7896H122.684V95.4211H136.316V81.7896Z" fill="#F1EA19"/>
<path d="M149.947 81.7896H136.316V95.4211H149.947V81.7896Z" fill="#F1EA19"/>
<path d="M163.579 81.7896H149.947V95.4211H163.579V81.7896Z" fill="#050606"/>
<path d="M177.211 81.7896H163.579V95.4211H177.211V81.7896Z" fill="#050606"/>
<path d="M13.6316 95.4211H0V109.053H13.6316V95.4211Z" fill="#050606"/>
<path d="M27.2632 95.4211H13.6316V109.053H27.2632V95.4211Z" fill="white"/>
<path d="M40.8947 95.4211H27.2632V109.053H40.8947V95.4211Z" fill="#F1EA19"/>
<path d="M54.5263 95.4211H40.8947V109.053H54.5263V95.4211Z" fill="#F1EA19"/>
<path d="M68.1579 95.4211H54.5263V109.053H68.1579V95.4211Z" fill="#F1EA19"/>
<path d="M81.7895 95.4211H68.1579V109.053H81.7895V95.4211Z" fill="#F1EA19"/>
<path d="M95.4211 95.4211H81.7895V109.053H95.4211V95.4211Z" fill="#F1EA19"/>
<path d="M109.053 95.4211H95.4211V109.053H109.053V95.4211Z" fill="#F1EA19"/>
<path d="M122.684 95.4211H109.053V109.053H122.684V95.4211Z" fill="#F1EA19"/>
<path d="M136.316 95.4211H122.684V109.053H136.316V95.4211Z" fill="#F1EA19"/>
<path d="M149.947 95.4211H136.316V109.053H149.947V95.4211Z" fill="#F58420"/>
<path d="M163.579 95.4211H149.947V109.053H163.579V95.4211Z" fill="#050606"/>
<path d="M177.211 95.4211H163.579V109.053H177.211V95.4211Z" fill="#F1EA19"/>
<path d="M13.6316 109.053H0V122.684H13.6316V109.053Z" fill="#050606"/>
<path d="M27.2632 109.053H13.6316V122.684H27.2632V109.053Z" fill="#050606"/>
<path d="M40.8947 109.053H27.2632V122.684H40.8947V109.053Z" fill="#F1EA19"/>
<path d="M54.5263 109.053H40.8947V122.684H54.5263V109.053Z" fill="#F1EA19"/>
<path d="M68.1579 109.053H54.5263V122.684H68.1579V109.053Z" fill="#F1EA19"/>
<path d="M81.7895 109.053H68.1579V122.684H81.7895V109.053Z" fill="#F1EA19"/>
<path d="M95.4211 109.053H81.7895V122.684H95.4211V109.053Z" fill="#F1EA19"/>
<path d="M109.053 109.053H95.4211V122.684H109.053V109.053Z" fill="#F1EA19"/>
<path d="M122.684 109.053H109.053V122.684H122.684V109.053Z" fill="#F1EA19"/>
<path d="M136.316 109.053H122.684V122.684H136.316V109.053Z" fill="#F1EA19"/>
<path d="M149.947 109.053H136.316V122.684H149.947V109.053Z" fill="#F1EA19"/>
<path d="M163.579 109.053H149.947V122.684H163.579V109.053Z" fill="#050606"/>
<path d="M177.211 109.053H163.579V122.684H177.211V109.053Z" fill="#F1EA19"/>
<path d="M13.6316 122.684H0V136.316H13.6316V122.684Z" fill="#050606"/>
<path d="M27.2632 122.684H13.6316V136.316H27.2632V122.684Z" fill="#F1EA19"/>
<path d="M40.8947 122.684H27.2632V136.316H40.8947V122.684Z" fill="#F1EA19"/>
<path d="M54.5263 122.684H40.8947V136.316H54.5263V122.684Z" fill="#F1EA19"/>
<path d="M68.1579 122.684H54.5263V136.316H68.1579V122.684Z" fill="#F1EA19"/>
<path d="M81.7895 122.684H68.1579V136.316H81.7895V122.684Z" fill="white"/>
<path d="M95.4211 122.684H81.7895V136.316H95.4211V122.684Z" fill="#050606"/>
<path d="M109.053 122.684H95.4211V136.316H109.053V122.684Z" fill="#F1EA19"/>
<path d="M122.684 122.684H109.053V136.316H122.684V122.684Z" fill="#F1EA19"/>
<path d="M136.316 122.684H122.684V136.316H136.316V122.684Z" fill="#F1EA19"/>
<path d="M149.947 122.684H136.316V136.316H149.947V122.684Z" fill="#F1EA19"/>
<path d="M163.579 122.684H149.947V136.316H163.579V122.684Z" fill="#F1EA19"/>
<path d="M177.211 122.684H163.579V136.316H177.211V122.684Z" fill="#050606"/>
<path d="M27.2632 136.316H13.6316V149.947H27.2632V136.316Z" fill="#050606"/>
<path d="M40.8947 136.316H27.2632V149.947H40.8947V136.316Z" fill="#F1EA19"/>
<path d="M54.5263 136.316H40.8947V149.947H54.5263V136.316Z" fill="#F1EA19"/>
<path d="M68.1579 136.316H54.5263V149.947H68.1579V136.316Z" fill="#F1EA19"/>
<path d="M81.7895 136.316H68.1579V149.947H81.7895V136.316Z" fill="#050606"/>
<path d="M95.4211 136.316H81.7895V149.947H95.4211V136.316Z" fill="#050606"/>
<path d="M109.053 136.316H95.4211V149.947H109.053V136.316Z" fill="#F1EA19"/>
<path d="M122.684 136.316H109.053V149.947H122.684V136.316Z" fill="#F1EA19"/>
<path d="M136.316 136.316H122.684V149.947H136.316V136.316Z" fill="#F1EA19"/>
<path d="M149.947 136.316H136.316V149.947H149.947V136.316Z" fill="#F1EA19"/>
<path d="M163.579 136.316H149.947V149.947H163.579V136.316Z" fill="#F58420"/>
<path d="M177.211 136.316H163.579V149.947H177.211V136.316Z" fill="#050606"/>
<path d="M40.8947 149.947H27.2632V163.579H40.8947V149.947Z" fill="#050606"/>
<path d="M54.5263 149.947H40.8947V163.579H54.5263V149.947Z" fill="#F58420"/>
<path d="M68.1579 149.947H54.5263V163.579H68.1579V149.947Z" fill="#F1EA19"/>
<path d="M81.7895 149.947H68.1579V163.579H81.7895V149.947Z" fill="#F1EA19"/>
<path d="M95.4211 149.947H81.7895V163.579H95.4211V149.947Z" fill="#F1EA19"/>
<path d="M109.053 149.947H95.4211V163.579H109.053V149.947Z" fill="#EF4438"/>
<path d="M122.684 149.947H109.053V163.579H122.684V149.947Z" fill="#EF4438"/>
<path d="M136.316 149.947H122.684V163.579H136.316V149.947Z" fill="#F1EA19"/>
<path d="M149.947 149.947H136.316V163.579H149.947V149.947Z" fill="#F58420"/>
<path d="M163.579 149.947H149.947V163.579H163.579V149.947Z" fill="#F58420"/>
<path d="M177.211 149.947H163.579V163.579H177.211V149.947Z" fill="#F58420"/>
<path d="M40.8947 163.579H27.2632V177.21H40.8947V163.579Z" fill="#050606"/>
<path d="M54.5263 163.579H40.8947V177.21H54.5263V163.579Z" fill="#F58420"/>
<path d="M68.1579 163.579H54.5263V177.21H68.1579V163.579Z" fill="#F1EA19"/>
<path d="M81.7895 163.579H68.1579V177.21H81.7895V163.579Z" fill="#F1EA19"/>
<path d="M95.4211 163.579H81.7895V177.21H95.4211V163.579Z" fill="#F1EA19"/>
<path d="M109.053 163.579H95.4211V177.21H109.053V163.579Z" fill="#EF4438"/>
<path d="M122.684 163.579H109.053V177.21H122.684V163.579Z" fill="#F58420"/>
<path d="M136.316 163.579H122.684V177.21H136.316V163.579Z" fill="#F58420"/>
<path d="M149.947 163.579H136.316V177.21H149.947V163.579Z" fill="#F58420"/>
<path d="M163.579 163.579H149.947V177.21H163.579V163.579Z" fill="#795649"/>
<path d="M177.211 163.579H163.579V177.21H177.211V163.579Z" fill="#795649"/>
<path d="M27.2632 177.21H13.6316V190.842H27.2632V177.21Z" fill="#050606"/>
<path d="M54.5263 177.21H40.8947V190.842H54.5263V177.21Z" fill="#F58420"/>
<path d="M40.8947 177.21H27.2632V190.842H40.8947V177.21Z" fill="#F1EA19"/>
<path d="M68.1579 177.21H54.5263V190.842H68.1579V177.21Z" fill="#F58420"/>
<path d="M81.7895 177.21H68.1579V190.842H81.7895V177.21Z" fill="#F58420"/>
<path d="M95.4211 177.21H81.7895V190.842H95.4211V177.21Z" fill="#F58420"/>
<path d="M109.053 177.21H95.4211V190.842H109.053V177.21Z" fill="#F58420"/>
<path d="M122.684 177.21H109.053V190.842H122.684V177.21Z" fill="#F58420"/>
<path d="M136.316 177.21H122.684V190.842H136.316V177.21Z" fill="#F1EA19"/>
<path d="M149.947 177.21H136.316V190.842H149.947V177.21Z" fill="#F58420"/>
<path d="M163.579 177.21H149.947V190.842H163.579V177.21Z" fill="#F58420"/>
<path d="M177.211 177.21H163.579V190.842H177.211V177.21Z" fill="#F58420"/>
<path d="M40.8947 190.842H27.2632V204.474H40.8947V190.842Z" fill="#050606"/>
<path d="M54.5263 190.842H40.8947V204.474H54.5263V190.842Z" fill="#050606"/>
<path d="M68.1579 190.842H54.5263V204.474H68.1579V190.842Z" fill="#F1EA19"/>
<path d="M81.7895 190.842H68.1579V204.474H81.7895V190.842Z" fill="#F1EA19"/>
<path d="M95.4211 190.842H81.7895V204.474H95.4211V190.842Z" fill="#F1EA19"/>
<path d="M109.053 190.842H95.4211V204.474H109.053V190.842Z" fill="#F1EA19"/>
<path d="M122.684 190.842H109.053V204.474H122.684V190.842Z" fill="#F1EA19"/>
<path d="M136.316 190.842H122.684V204.474H136.316V190.842Z" fill="#050606"/>
<path d="M149.947 190.842H136.316V204.474H149.947V190.842Z" fill="#F58420"/>
<path d="M163.579 190.842H149.947V204.474H163.579V190.842Z" fill="#F58420"/>
<path d="M177.211 190.842H163.579V204.474H177.211V190.842Z" fill="#795649"/>
<path d="M54.5263 204.474H40.8947V218.105H54.5263V204.474Z" fill="#050606"/>
<path d="M68.1579 204.474H54.5263V218.105H68.1579V204.474Z" fill="#F58420"/>
<path d="M81.7895 204.474H68.1579V218.105H81.7895V204.474Z" fill="#F1EA19"/>
<path d="M95.4211 204.474H81.7895V218.105H95.4211V204.474Z" fill="#F1EA19"/>
<path d="M109.053 204.474H95.4211V218.105H109.053V204.474Z" fill="#F1EA19"/>
<path d="M122.684 204.474H109.053V218.105H122.684V204.474Z" fill="#050606"/>
<path d="M136.316 204.474H122.684V218.105H136.316V204.474Z" fill="#F1EA19"/>
<path d="M149.947 204.474H136.316V218.105H149.947V204.474Z" fill="#F58420"/>
<path d="M163.579 204.474H149.947V218.105H163.579V204.474Z" fill="#F58420"/>
<path d="M177.211 204.474H163.579V218.105H177.211V204.474Z" fill="#F58420"/>
<path d="M40.8947 218.105H27.2632V231.737H40.8947V218.105Z" fill="#050606"/>
<path d="M54.5263 218.105H40.8947V231.737H54.5263V218.105Z" fill="#F58420"/>
<path d="M68.1579 218.105H54.5263V231.737H68.1579V218.105Z" fill="#050606"/>
<path d="M81.7895 218.105H68.1579V231.737H81.7895V218.105Z" fill="#F58420"/>
<path d="M95.4211 218.105H81.7895V231.737H95.4211V218.105Z" fill="#F58420"/>
<path d="M109.053 218.105H95.4211V231.737H109.053V218.105Z" fill="#F58420"/>
<path d="M122.684 218.105H109.053V231.737H122.684V218.105Z" fill="#F58420"/>
<path d="M136.316 218.105H122.684V231.737H136.316V218.105Z" fill="#050606"/>
<path d="M149.947 218.105H136.316V231.737H149.947V218.105Z" fill="#F58420"/>
<path d="M163.579 218.105H149.947V231.737H163.579V218.105Z" fill="#F58420"/>
<path d="M177.211 218.105H163.579V231.737H177.211V218.105Z" fill="#F58420"/>
<path d="M40.8947 231.737H27.2632V245.368H40.8947V231.737Z" fill="#050606"/>
<path d="M54.5263 231.737H40.8947V245.368H54.5263V231.737Z" fill="#050606"/>
<path d="M68.1579 231.737H54.5263V245.368H68.1579V231.737Z" fill="#050606"/>
<path d="M81.7895 231.737H68.1579V245.368H81.7895V231.737Z" fill="#050606"/>
<path d="M95.4211 231.737H81.7895V245.368H95.4211V231.737Z" fill="#050606"/>
<path d="M109.053 231.737H95.4211V245.368H109.053V231.737Z" fill="#F1EA19"/>
<path d="M122.684 231.737H109.053V245.368H122.684V231.737Z" fill="#F1EA19"/>
<path d="M136.316 231.737H122.684V245.368H136.316V231.737Z" fill="#F1EA19"/>
<path d="M149.947 231.737H136.316V245.368H149.947V231.737Z" fill="#F58420"/>
<path d="M163.579 231.737H149.947V245.368H163.579V231.737Z" fill="#F58420"/>
<path d="M177.211 231.737H163.579V245.368H177.211V231.737Z" fill="#050606"/>
<path d="M109.053 245.368H95.4211V259H109.053V245.368Z" fill="#050606"/>
<path d="M122.684 245.368H109.053V259H122.684V245.368Z" fill="#050606"/>
<path d="M136.316 245.368H122.684V259H136.316V245.368Z" fill="#050606"/>
<path d="M149.947 245.368H136.316V259H149.947V245.368Z" fill="#F58420"/>
<path d="M163.579 245.368H149.947V259H163.579V245.368Z" fill="#050606"/>
<path d="M177.211 245.368H163.579V259H177.211V245.368Z" fill="#050606"/>
<path d="M122.684 259H109.053V272.632H122.684V259Z" fill="#050606"/>
<path d="M136.316 259H122.684V272.632H136.316V259Z" fill="#F1EA19"/>
<path d="M149.947 259H136.316V272.632H149.947V259Z" fill="#F1EA19"/>
<path d="M163.579 259H149.947V272.632H163.579V259Z" fill="#F58420"/>
<path d="M177.211 259H163.579V272.632H177.211V259Z" fill="#050606"/>
<path d="M163.579 272.632H149.947V286.263H163.579V272.632Z" fill="#050606"/>
<path d="M149.947 272.632H136.316V286.263H149.947V272.632Z" fill="#050606"/>
<path d="M136.316 272.632H122.684V286.263H136.316V272.632Z" fill="#050606"/>
</svg>
