<svg width="259" height="287" viewBox="0 0 259 287" fill="none" xmlns="http://www.w3.org/2000/svg">
<path d="M109.053 149.947H95.4211V163.579V177.21H109.053V163.579H122.684V149.947H109.053Z" fill="#EF4438"/>
<path d="M81.7895 122.684H68.1579V136.316H81.7895V122.684Z" fill="white"/>
<path d="M27.2632 95.4211H13.6316V109.053H27.2632V95.4211Z" fill="white"/>
<path d="M163.579 259H149.947V272.632H163.579V259Z" fill="#F58420"/>
<path d="M54.5263 218.105H40.8948V231.737H54.5263V218.105Z" fill="#F58420"/>
<path d="M95.4211 218.105H81.7895H68.1579V231.737H81.7895H95.4211H109.053H122.684V218.105H109.053H95.4211Z" fill="#F58420"/>
<path d="M68.1579 204.474H54.5263V218.105H68.1579V204.474Z" fill="#F58420"/>
<path d="M163.579 136.316H149.947V149.947H136.316V163.579H122.684H109.053V177.21H95.4211H81.7895H68.1579H54.5263V163.579V149.947H40.8948V163.579V177.21V190.842H54.5263H68.1579H81.7895H95.4211H109.053H122.684V177.21H136.316V190.842V204.474V218.105V231.737V245.368H149.947H163.579V231.737H177.211V218.105V204.474H163.579V190.842H177.211V177.21H163.579H149.947V163.579H163.579H177.211V149.947H163.579V136.316Z" fill="#F58420"/>
<path d="M149.947 95.4211H136.316V109.053H149.947V95.4211Z" fill="#F58420"/>
<path d="M81.7895 54.5264H68.1579V68.1579H81.7895V54.5264Z" fill="#F58420"/>
<path d="M231.737 27.2632H218.105V40.8948H204.474V54.5263H190.842V68.1579H177.211V81.7895V95.4211H190.842V109.053V122.684V136.316H204.474V122.684H218.105V109.053V95.4211H204.474V81.7895H218.105V68.1579H231.737V54.5263H245.368V40.8948V27.2632H231.737Z" fill="#F58420"/>
<path d="M177.211 190.842H163.579V204.474H177.211V190.842Z" fill="#795649"/>
<path d="M149.947 163.579V177.21H163.579H177.211V163.579H163.579H149.947Z" fill="#795649"/>
<path d="M163.579 54.5264H149.947V68.1579V81.7895H163.579V68.1579H177.211V54.5264H163.579Z" fill="#795649"/>
<path d="M81.7895 13.6316H68.1579V27.2632H81.7895V13.6316Z" fill="#795649"/>
<path d="M136.316 259H122.684V272.632H136.316H149.947V259V245.368H136.316V259Z" fill="#F1EA19"/>
<path d="M122.684 231.737H109.053H95.421V245.368H109.053H122.684H136.316V231.737H122.684Z" fill="#F1EA19"/>
<path d="M109.053 218.105V204.474H122.684V190.842H109.053H95.421H81.7895H68.1579H54.5263V204.474H68.1579V218.105H81.7895H95.421H109.053Z" fill="#F1EA19"/>
<path d="M136.316 204.474H122.684V218.105H136.316V204.474Z" fill="#F1EA19"/>
<path d="M40.8947 177.21H27.2631V190.842H40.8947V177.21Z" fill="#F1EA19"/>
<path d="M136.316 177.21H122.684V190.842H136.316V177.21Z" fill="#F1EA19"/>
<path d="M149.947 109.053H136.316V95.4211H149.947V81.7895V68.1579H136.316H122.684V81.7895H109.053H95.421V68.1579H81.7895H68.1579V54.5263H81.7895V40.8948V27.2632H68.1579V40.8948H54.5263V54.5263V68.1579H40.8947V81.7895H27.2631V95.4211V109.053V122.684H13.6316V136.316H27.2631V149.947H40.8947H54.5263V163.579V177.211H68.1579H81.7895H95.421V163.579V149.947H81.7895H68.1579V136.316V122.684H81.7895H95.421V136.316V149.947H109.053H122.684V163.579H136.316V149.947H149.947V136.316H163.579V122.684H149.947V109.053Z" fill="#F1EA19"/>
<path d="M163.579 109.053V122.684H177.211V109.053V95.4211H163.579V109.053Z" fill="#F1EA19"/>
<path d="M204.474 40.8948H190.842V54.5264H204.474V40.8948Z" fill="#F1EA19"/>
<path d="M218.105 27.2632H204.474V40.8948H218.105V27.2632Z" fill="#F1EA19"/>
<path d="M231.737 13.6316H218.105V27.2632H231.737V13.6316Z" fill="#F1EA19"/>
<path d="M136.316 272.632H122.684V286.263H136.316H149.947H163.579V272.632H149.947H136.316Z" fill="#050606"/>
<path d="M136.316 259V245.368H122.684H109.053H95.4211V259H109.053V272.632H122.684V259H136.316Z" fill="#050606"/>
<path d="M81.7895 231.737H68.1579V218.105H54.5263V231.737H40.8947V218.105H27.2632V231.737V245.368H40.8947H54.5263H68.1579H81.7895H95.4211V231.737H81.7895Z" fill="#050606"/>
<path d="M163.579 245.368H149.947V259H163.579V272.632H177.211V259V245.368V231.737H163.579V245.368Z" fill="#050606"/>
<path d="M136.316 218.105H122.684V231.737H136.316V218.105Z" fill="#050606"/>
<path d="M54.5263 204.474V190.842H40.8947H27.2632V204.474H40.8947V218.105H54.5263V204.474Z" fill="#050606"/>
<path d="M122.684 204.474H109.053V218.105H122.684V204.474Z" fill="#050606"/>
<path d="M136.316 190.842H122.684V204.474H136.316V190.842Z" fill="#050606"/>
<path d="M27.2632 177.21H13.6316V190.842H27.2632V177.21Z" fill="#050606"/>
<path d="M40.8947 163.579V149.947H27.2632V163.579V177.21H40.8947V163.579Z" fill="#050606"/>
<path d="M27.2632 136.316H13.6316V149.947H27.2632V136.316Z" fill="#050606"/>
<path d="M81.7895 136.316H68.1579V149.947H81.7895H95.4211V136.316V122.684H81.7895V136.316Z" fill="#050606"/>
<path d="M190.842 122.684V109.053V95.4211H177.211V109.053V122.684H163.579V136.316V149.947H177.211V163.579V177.211V190.842V204.474V218.105V231.737H190.842V218.105V204.474V190.842V177.211V163.579V149.947H204.474V136.316H190.842V122.684Z" fill="#050606"/>
<path d="M218.105 122.684H204.474V136.316H218.105V122.684Z" fill="#050606"/>
<path d="M27.2632 122.684V109.053H13.6316V95.4211H0V109.053V122.684V136.316H13.6316V122.684H27.2632Z" fill="#050606"/>
<path d="M218.105 122.684H231.737V109.053V95.4211H218.105V109.053V122.684Z" fill="#050606"/>
<path d="M27.2632 81.7896H13.6316V95.4211H27.2632V81.7896Z" fill="#050606"/>
<path d="M218.105 81.7896H204.474V95.4211H218.105V81.7896Z" fill="#050606"/>
<path d="M40.8947 68.158H27.2632V81.7895H40.8947V68.158Z" fill="#050606"/>
<path d="M109.053 81.7895H122.684V68.158H109.053H95.4211V81.7895H109.053Z" fill="#050606"/>
<path d="M163.579 81.7895H149.947V95.4211V109.053V122.684H163.579V109.053V95.4211H177.211V81.7895V68.158H163.579V81.7895Z" fill="#050606"/>
<path d="M231.737 68.158H218.105V81.7895H231.737V68.158Z" fill="#050606"/>
<path d="M54.5263 54.5264V40.8948H40.8947V54.5264V68.1579H54.5263V54.5264Z" fill="#050606"/>
<path d="M149.947 68.1579V54.5264H136.316H122.684V68.1579H136.316H149.947Z" fill="#050606"/>
<path d="M245.368 54.5264H231.737V68.1579H245.368V54.5264Z" fill="#050606"/>
<path d="M177.211 54.5264V68.1579H190.842V54.5264V40.8948H177.211H163.579H149.947V54.5264H163.579H177.211Z" fill="#050606"/>
<path d="M68.1579 27.2632V13.6316H54.5263V27.2632V40.8947H68.1579V27.2632Z" fill="#050606"/>
<path d="M204.474 27.2632H190.842V40.8948H204.474V27.2632Z" fill="#050606"/>
<path d="M245.368 27.2632V40.8948V54.5263H259V40.8948V27.2632H245.368Z" fill="#050606"/>
<path d="M81.7895 27.2632V40.8947V54.5263V68.1579H95.4211V54.5263V40.8947V27.2632V13.6316V0H81.7895H68.1579V13.6316H81.7895V27.2632Z" fill="#050606"/>
<path d="M218.105 13.6316H204.474V27.2632H218.105V13.6316Z" fill="#050606"/>
<path d="M245.368 13.6316H231.737V27.2632H245.368V13.6316Z" fill="#050606"/>
<path d="M231.737 0H218.105V13.6316H231.737V0Z" fill="#050606"/>
</svg>
