<svg width="24" height="26" viewBox="0 0 24 26" fill="none" xmlns="http://www.w3.org/2000/svg">
<path fill-rule="evenodd" clip-rule="evenodd" d="M14.2626 7.84974C15.6201 7.27986 16.7537 6.28136 17.4904 5.00671C16.6937 4.57404 15.8492 4.23584 14.9741 3.99898L16.672 1.92244C16.8176 1.73372 16.8839 1.49568 16.8569 1.25886C16.8298 1.02204 16.7115 0.80509 16.5271 0.654065C16.3427 0.503039 16.1067 0.429834 15.8692 0.449992C15.6317 0.470149 15.4114 0.582081 15.2551 0.762025L12.9495 3.58062C12.1123 3.47068 11.2643 3.47068 10.4271 3.58062L8.12155 0.762025C8.04669 0.664998 7.95312 0.583977 7.84639 0.523758C7.73966 0.463538 7.62193 0.425344 7.50018 0.411436C7.37842 0.397529 7.25512 0.408191 7.13755 0.442791C7.01999 0.477391 6.91057 0.535226 6.81576 0.612872C6.72095 0.690518 6.64268 0.786397 6.58559 0.894833C6.5285 1.00327 6.49374 1.12206 6.48337 1.24416C6.47301 1.36627 6.48725 1.48922 6.52525 1.60572C6.56326 1.72223 6.62425 1.82993 6.70462 1.92244L8.40249 3.99898C7.52738 4.23584 6.68291 4.57404 5.88621 5.00671C6.70713 6.40871 8.00585 7.46788 9.54431 7.99004C11.0828 8.51221 12.7579 8.4624 14.2626 7.84974ZM19.3226 6.22816C18.1225 9.14447 15.8078 9.93845 12.9098 10.198C11.1081 15.4901 13.0991 21.335 16.8796 25.1613C24.1719 21.7136 25.5095 11.4195 19.3226 6.22816ZM4.05391 6.22816C4.56272 7.45682 5.40989 8.51579 6.4969 9.28189C7.65203 10.0897 9.22979 10.1476 10.0762 10.1787C10.2345 10.1845 10.3672 10.1894 10.4668 10.198C12.2685 15.4901 10.2774 21.335 6.4969 25.1613C6.14877 24.9964 0.835281 22.3671 0.0840627 16.3055C-0.656856 10.3263 3.73504 6.50556 4.05248 6.22941L4.05391 6.22816Z" fill="#90C12C"/>
</svg>
