<svg width="25" height="21" viewBox="0 0 25 21" fill="none" xmlns="http://www.w3.org/2000/svg">
<path fill-rule="evenodd" clip-rule="evenodd" d="M24.7308 2.414V18.4461C24.7308 18.8713 24.5619 19.2791 24.2613 19.5797C23.9606 19.8804 23.5528 20.0493 23.1276 20.0493H7.40091C6.97572 20.0493 6.56793 19.8804 6.26727 19.5797C5.96661 19.2791 5.7977 18.8713 5.7977 18.4461V2.414C5.7977 1.9888 5.96661 1.58102 6.26727 1.28036C6.56793 0.9797 6.97572 0.810791 7.40091 0.810791H8.16435C8.58954 0.810791 8.99733 0.9797 9.29799 1.28036C9.59865 1.58102 9.76756 1.9888 9.76756 2.414V7.62977C9.76756 7.76503 9.82128 7.89474 9.91692 7.99038C10.0126 8.08602 10.1423 8.13975 10.2775 8.13975C10.3444 8.13975 10.4105 8.12654 10.4722 8.10087C10.5339 8.0752 10.5899 8.03759 10.6371 7.9902C10.6842 7.9428 10.7214 7.88656 10.7467 7.8247C10.772 7.76285 10.7849 7.6966 10.7844 7.62977V2.414C10.7844 1.9888 10.9534 1.58102 11.254 1.28036C11.5547 0.9797 11.9625 0.810791 12.3877 0.810791H13.1511C13.5763 0.810791 13.9841 0.9797 14.2847 1.28036C14.5854 1.58102 14.7543 1.9888 14.7543 2.414V7.62977C14.7543 7.76503 14.808 7.89474 14.9037 7.99038C14.9993 8.08602 15.129 8.13975 15.2643 8.13975C15.3995 8.13975 15.5292 8.08602 15.6249 7.99038C15.7205 7.89474 15.7742 7.76503 15.7742 7.62977V2.414C15.7742 1.9888 15.9432 1.58102 16.2438 1.28036C16.5445 0.9797 16.9523 0.810791 17.3775 0.810791H18.1409C18.5661 0.810791 18.9739 0.9797 19.2745 1.28036C19.5752 1.58102 19.7441 1.9888 19.7441 2.414V7.62977C19.7437 7.6966 19.7565 7.76285 19.7818 7.8247C19.8071 7.88656 19.8444 7.9428 19.8915 7.9902C19.9386 8.03759 19.9946 8.0752 20.0563 8.10087C20.118 8.12654 20.1842 8.13975 20.251 8.13975C20.3863 8.13975 20.516 8.08602 20.6116 7.99038C20.7073 7.89474 20.761 7.76503 20.761 7.62977V2.414C20.761 1.9888 20.9299 1.58102 21.2306 1.28036C21.5312 0.9797 21.939 0.810791 22.3642 0.810791H23.1276C23.5528 0.810791 23.9606 0.9797 24.2613 1.28036C24.5619 1.58102 24.7308 1.9888 24.7308 2.414ZM2.26452 19.0812L0.737654 15.3587C0.163458 13.9619 0.163458 12.3949 0.737654 10.998L2.26452 7.27551C2.37658 7.00061 2.58074 6.77323 2.84202 6.63232C3.1033 6.49141 3.40545 6.44574 3.69671 6.50312C3.98797 6.56051 4.25021 6.71738 4.43852 6.94687C4.62682 7.17637 4.72947 7.46419 4.72888 7.76105V18.5957C4.72947 18.8925 4.62682 19.1804 4.43852 19.4099C4.25021 19.6394 3.98797 19.7962 3.69671 19.8536C3.40545 19.911 3.1033 19.8653 2.84202 19.7244C2.58074 19.5835 2.37658 19.3561 2.26452 19.0812Z" fill="#CE4069"/>
</svg>
