<svg width="26" height="25" viewBox="0 0 26 25" fill="none" xmlns="http://www.w3.org/2000/svg">
<path d="M25.1899 10.5834C25.1899 4.96144 19.7206 0.405273 12.9749 0.405273C6.22924 0.405273 0.76001 4.96144 0.76001 10.5834C0.76001 13.6371 2.38765 16.3855 4.95889 18.2604C4.60422 18.9014 4.42021 19.6228 4.42449 20.3553C4.42449 22.3799 5.74675 24.0198 7.37745 24.0198C8.6478 24.0198 9.72882 23.0212 10.1472 21.6257C10.5106 23.009 11.6374 24.0198 12.9749 24.0198C14.3125 24.0198 15.4393 23.009 15.8027 21.6257C16.2211 23.0212 17.3021 24.0198 18.5724 24.0198C20.2031 24.0198 21.5254 22.3799 21.5254 20.3553C21.5297 19.6228 21.3456 18.9014 20.991 18.2604C23.5622 16.3855 25.1899 13.6371 25.1899 10.5834ZM12.9749 16.7916C8.50427 16.7916 4.72986 13.9425 4.72986 10.5834C4.72986 7.22426 8.50427 4.37512 12.9749 4.37512C17.4456 4.37512 21.22 7.22426 21.22 10.5834C21.22 13.9425 17.4456 16.7916 12.9749 16.7916Z" fill="#AB6AC8"/>
</svg>
