<svg width="29" height="26" viewBox="0 0 29 26" fill="none" xmlns="http://www.w3.org/2000/svg">
<path d="M13.3285 13.3825L6.58587 17.1814L0.0844727 13.3031L6.49731 9.59284L13.3285 13.3825ZM22.45 9.42488L15.6921 13.2237L22.5111 17.0256L28.9239 13.3153L22.45 9.42488ZM13.7316 4.51143L7.31876 0.804199L7.18135 8.37745L13.8507 12.3198L13.7316 4.51143ZM21.8393 18.2288L15.1699 14.2864L15.289 22.0948L21.7018 25.802L21.8393 18.2288ZM21.7354 8.23393V0.813361L15.121 4.50227L15.0386 12.2404L21.7354 8.23393ZM13.8996 22.104L13.982 14.3658L7.28517 18.3723V25.7929L13.8996 22.104Z" fill="#74CEC0"/>
</svg>
