<svg width="23" height="29" viewBox="0 0 23 29" fill="none" xmlns="http://www.w3.org/2000/svg">
<path d="M18.1022 8.48911C21.2354 10.7153 23.0584 14.8317 21.6751 18.5664C20.3742 22.0874 16.7372 24.2891 13.0727 24.3929C13.7306 24.1605 14.3216 23.7707 14.7941 23.2574C15.2666 22.7441 15.6063 22.1229 15.7836 21.4481C15.9609 20.7733 15.9703 20.0654 15.8111 19.3861C15.6518 18.7068 15.3288 18.0769 14.8701 17.5512C14.4114 17.0254 13.831 16.62 13.1796 16.3701C12.5282 16.1203 11.8255 16.0337 11.1329 16.1179C10.4403 16.202 9.77883 16.4544 9.20621 16.853C8.63359 17.2516 8.16723 17.7843 7.84781 18.4046C6.32094 21.3362 8.73339 24.2586 11.3657 25.4282C14.3492 26.7596 17.7969 25.7763 20.191 23.7181C16.0685 29.3736 7.72261 30.3783 3.14201 24.735C0.0272018 20.8964 -0.0460874 15.2684 2.78472 11.2039C2.10374 13.4056 2.63204 15.6318 4.46427 16.8533C2.63204 13.1888 3.85353 10.413 6.33927 7.9547C7.53633 6.76986 9.06014 6.3179 10.3091 5.28269C11.6833 4.1467 11.8635 2.25949 11.6008 0.601318C12.686 1.16935 13.5818 2.04167 14.1785 3.11134C14.7752 4.181 15.0467 5.40153 14.96 6.62328C11.4879 6.63855 10.2144 11.4695 13.2743 13.1888C16.2547 14.8745 19.7146 11.5215 18.1022 8.48911Z" fill="#FF9C54"/>
</svg>
