<svg width="26" height="23" viewBox="0 0 26 23" fill="none" xmlns="http://www.w3.org/2000/svg">
<path d="M22.2634 14.8905C20.9777 17.0647 19.3715 18.0053 17.3011 18.2496C16.7972 18.3045 16.2811 18.2496 15.7742 18.3259C15.4108 18.3717 15.1634 18.7626 15.4688 18.9367C16.9529 19.752 15.6093 20.1368 15.2031 20.4635C13.6621 21.668 11.7812 22.3571 9.82672 22.4333C7.87229 22.5094 5.94344 21.9688 4.31332 20.8879C2.6832 19.807 1.43446 18.2407 0.743939 16.4107C0.0534191 14.5807 -0.0438763 12.5799 0.465833 10.6916C0.957622 8.80374 2.03673 7.12108 3.5473 5.8866C5.05788 4.65212 6.92174 3.92972 8.8697 3.82373C11.4043 3.71075 13.9511 3.72296 16.504 3.7932C19.7685 3.87259 22.7581 3.26185 25.1553 0.608154C25.598 1.3441 25.4118 1.99149 25.3049 2.59003C24.9204 4.73517 23.802 6.67989 22.1413 8.09105C20.4805 9.50221 18.3808 10.292 16.2017 10.3251C15.2856 10.3465 14.3695 10.3251 13.4534 10.3496C13.148 10.3496 12.7999 10.4198 12.7968 10.8076C12.7968 11.113 13.1022 11.1985 13.3556 11.1832C16.7147 11.0153 20.2082 11.9283 23.2619 9.73576C23.4849 9.57391 23.7505 9.25632 24.0406 9.58307C24.2788 9.84875 24.1048 10.1602 23.9551 10.4259C22.5993 12.8475 20.5808 14.3072 17.7805 14.5607C16.9743 14.6339 16.1559 14.5607 15.3375 14.6065C14.8672 14.6309 14.0733 14.3866 14.0488 15.0187C14.0213 15.7455 14.8306 15.4523 15.2703 15.4462C17.4873 15.4218 19.7196 15.7272 22.2634 14.8905Z" fill="#92AADE"/>
</svg>
