<svg width="18" height="25" viewBox="0 0 18 25" fill="none" xmlns="http://www.w3.org/2000/svg">
<path d="M17.76 15.8266C17.76 18.1348 16.8431 20.3485 15.2109 21.9807C13.5788 23.6128 11.3651 24.5298 9.0569 24.5298C6.74868 24.5298 4.535 23.6128 2.90285 21.9807C1.27069 20.3485 0.35376 18.1348 0.35376 15.8266C0.35376 11.02 7.37734 0.405273 9.0569 0.405273C10.7364 0.405273 17.76 11.02 17.76 15.8266ZM10.1257 18.7277C8.91085 18.7277 7.74576 18.2451 6.88673 17.386C6.0277 16.527 5.5451 15.3619 5.5451 14.1471C5.54461 13.5531 5.66082 12.9648 5.88712 12.4156C5.13821 12.9111 4.53062 13.5923 4.12372 14.3928C3.71682 15.1933 3.52452 16.0857 3.56562 16.9827C3.60671 17.8798 3.87979 18.7508 4.35817 19.5108C4.83655 20.2707 5.50388 20.8936 6.29496 21.3185C7.08604 21.7434 7.97381 21.9559 8.87156 21.9351C9.7693 21.9144 10.6463 21.6611 11.4169 21.2001C12.1875 20.739 12.8253 20.086 13.268 19.3047C13.7108 18.5235 13.9433 17.6407 13.9429 16.7427C13.9429 16.7214 13.9429 16.703 13.9429 16.6817C13.5247 17.3111 12.9574 17.8273 12.2914 18.1843C11.6253 18.5413 10.8814 18.7279 10.1257 18.7277Z" fill="#4D90D5"/>
</svg>
