<svg width="24" height="27" viewBox="0 0 24 27" fill="none" xmlns="http://www.w3.org/2000/svg">
<path d="M23.2698 13.3337C22.7654 10.8239 21.4324 8.55643 19.4847 6.8951C17.5371 5.23376 15.0878 4.27493 12.5299 4.17249C12.9965 2.88597 12.9725 1.47263 12.4627 0.202637C11.8649 1.54998 10.9789 2.7498 9.86702 3.71748C9.39321 4.16469 8.85353 4.53649 8.26686 4.81988C7.68525 5.04394 7.1164 5.29983 6.56288 5.58637C4.40769 6.78636 2.69491 8.64686 1.67691 10.8938C1.09042 12.1935 0.753738 13.592 0.684448 15.0163C1.94561 14.6217 3.23082 14.3085 4.53215 14.0788C5.68646 13.8772 6.85604 13.7734 8.01646 13.6177C10.1541 13.3123 11.8367 12.0725 13.0154 10.2586C14.5055 10.7379 15.7528 11.7742 16.4971 13.1512C17.2413 14.5282 17.425 16.1394 17.0097 17.6485C16.5944 19.1577 15.6122 20.4481 14.2682 21.2504C12.9242 22.0527 11.3223 22.3049 9.79678 21.9544C10.3848 23.2747 11.3133 24.4151 12.4871 25.2585C13.0847 25.6868 13.7382 26.031 14.4293 26.2815C14.7356 26.4327 15.0742 26.5071 15.4157 26.4983C15.8105 26.4025 16.1936 26.2632 16.5577 26.083C18.9743 25.0546 20.9622 23.2242 22.1861 20.9005C23.41 18.5768 23.7949 15.9021 23.276 13.3276L23.2698 13.3337ZM4.92303 9.51957C5.25408 9.18981 5.65639 8.94041 6.09899 8.79058C6.54158 8.64076 7.01266 8.59449 7.47595 8.65536C7.53078 9.11678 7.48033 9.58463 7.32839 10.0237C7.17645 10.4629 6.92697 10.8618 6.5987 11.1907C6.27042 11.5196 5.87189 11.7698 5.43305 11.9225C4.9942 12.0752 4.52644 12.1265 4.06493 12.0725C4.00328 11.6097 4.04857 11.1389 4.19733 10.6963C4.34609 10.2538 4.59435 9.85119 4.92303 9.51957ZM10.9083 26.9442C8.52577 26.6974 6.28109 25.7077 4.49183 24.1152C2.70257 22.5227 1.45931 20.4079 0.937908 18.07C3.42217 16.7172 6.21759 16.0392 9.04557 16.1034C8.08098 17.5694 7.62595 19.3123 7.75078 21.0627C7.82713 22.2115 8.14839 23.3307 8.693 24.3452C9.23762 25.3596 9.99297 26.2458 10.9083 26.9442Z" fill="#096DC4"/>
</svg>
