<svg width="26" height="25" viewBox="0 0 26 25" fill="none" xmlns="http://www.w3.org/2000/svg">
<path d="M13.1388 24.8351C10.7229 24.8351 8.36125 24.1187 6.35251 22.7765C4.34378 21.4344 2.77816 19.5266 1.85364 17.2947C0.929121 15.0627 0.687224 12.6067 1.15854 10.2372C1.62986 7.86773 2.79321 5.69124 4.5015 3.98295C6.20979 2.27466 8.38628 1.1113 10.7557 0.639985C13.1252 0.16867 15.5812 0.410566 17.8132 1.33508C20.0452 2.2596 21.9529 3.82522 23.2951 5.83396C24.6373 7.84269 25.3537 10.2043 25.3537 12.6202C25.3537 15.8598 24.0668 18.9667 21.776 21.2575C19.4853 23.5482 16.3784 24.8351 13.1388 24.8351ZM13.1388 5.29125C11.6892 5.29125 10.2723 5.72109 9.06701 6.5264C7.86177 7.33172 6.9224 8.47634 6.36769 9.81554C5.81298 11.1547 5.66784 12.6283 5.95063 14.05C6.23342 15.4717 6.93143 16.7776 7.95641 17.8026C8.98138 18.8275 10.2873 19.5256 11.709 19.8083C13.1306 20.0911 14.6042 19.946 15.9434 19.3913C17.2826 18.8366 18.4272 17.8972 19.2326 16.692C20.0379 15.4867 20.4677 14.0697 20.4677 12.6202C20.4677 10.6764 19.6956 8.8123 18.3211 7.43785C16.9467 6.06341 15.0825 5.29125 13.1388 5.29125Z" fill="#9099A1"/>
</svg>
