<svg width="24" height="24" viewBox="0 0 24 24" fill="none" xmlns="http://www.w3.org/2000/svg">
<path d="M23.8596 11.6778C23.8596 1.52409 11.263 -3.8352 3.93402 3.20975C-3.4438 10.3188 1.63151 23.117 11.8737 23.4285C17.2178 23.4285 19.673 22.9796 23.4535 22.0116C22.3112 21.5441 21.2553 20.8886 20.3295 20.0725C21.4483 18.9795 22.337 17.6737 22.9432 16.232C23.5495 14.7903 23.8611 13.2418 23.8596 11.6778ZM7.36947 12.5939C6.69183 12.5926 6.03724 12.3477 5.52511 11.904C5.01297 11.4603 4.67742 10.8472 4.57967 10.1766C4.48192 9.50609 4.62849 8.82275 4.99263 8.25127C5.35677 7.67978 5.91422 7.25825 6.56328 7.06356C6.54275 7.20109 6.53152 7.33984 6.52969 7.47887C6.52866 7.91903 6.63073 8.35332 6.82773 8.74694C7.02473 9.14056 7.31118 9.48258 7.66412 9.74558C8.01707 10.0086 8.42672 10.1853 8.86023 10.2615C9.29375 10.3377 9.73909 10.3113 10.1606 10.1845C10.0611 10.8538 9.72461 11.4652 9.21237 11.9074C8.70013 12.3496 8.04616 12.5932 7.36947 12.5939ZM16.8024 12.5939C16.1256 12.5938 15.4713 12.3504 14.9589 11.9081C14.4465 11.4658 14.1102 10.8541 14.0113 10.1845C14.4328 10.3113 14.8782 10.3377 15.3117 10.2615C15.7452 10.1853 16.1548 10.0086 16.5078 9.74558C16.8607 9.48258 17.1472 9.14056 17.3442 8.74694C17.5412 8.35332 17.6433 7.91903 17.6422 7.47887C17.6404 7.33984 17.6292 7.20109 17.6086 7.06356C18.2577 7.25825 18.8151 7.67978 19.1793 8.25127C19.5434 8.82275 19.69 9.50609 19.5922 10.1766C19.4945 10.8472 19.1589 11.4603 18.6468 11.904C18.1347 12.3477 17.4801 12.5926 16.8024 12.5939Z" fill="#5269AC"/>
</svg>
