<svg width="25" height="25" viewBox="0 0 25 25" fill="none" xmlns="http://www.w3.org/2000/svg">
<path d="M22.2873 12.6202C22.2879 14.1527 21.9222 15.6632 21.2207 17.0257C20.5191 18.3882 19.5021 19.5633 18.2544 20.4531C17.0066 21.3429 15.5643 21.9216 14.0476 22.141C12.5308 22.3603 10.9837 22.214 9.53493 21.7142C11.4277 21.0617 13.0697 19.8348 14.232 18.2047C15.3944 16.5745 16.0191 14.6223 16.0191 12.6202C16.0191 10.6181 15.3944 8.66589 14.232 7.03573C13.0697 5.40558 11.4277 4.17871 9.53493 3.52619C10.9837 3.02638 12.5308 2.88006 14.0476 3.09943C15.5643 3.31879 17.0066 3.89748 18.2544 4.78727C19.5021 5.67707 20.5191 6.85219 21.2207 8.21471C21.9222 9.57723 22.2879 11.0877 22.2873 12.6202ZM12.4696 0.405273C10.0537 0.405273 7.69206 1.12167 5.68332 2.46386C3.67459 3.80605 2.10897 5.71376 1.18445 7.94575C0.259931 10.1777 0.0180349 12.6337 0.489351 15.0032C0.960666 17.3727 2.12403 19.5492 3.83231 21.2575C5.5406 22.9657 7.71709 24.1291 10.0866 24.6004C12.456 25.0717 14.912 24.8298 17.144 23.9053C19.376 22.9808 21.2837 21.4152 22.6259 19.4065C23.9681 17.3977 24.6845 15.0361 24.6845 12.6202C24.6845 9.3806 23.3976 6.27369 21.1068 3.98294C18.8161 1.6922 15.7092 0.405273 12.4696 0.405273Z" fill="#5A5366"/>
</svg>
