<svg width="28" height="24" viewBox="0 0 28 24" fill="none" xmlns="http://www.w3.org/2000/svg">
<path d="M20.3556 11.5102C20.3556 12.7182 19.9974 13.899 19.3263 14.9034C18.6552 15.9077 17.7013 16.6905 16.5853 17.1528C15.4693 17.6151 14.2413 17.736 13.0566 17.5004C11.8719 17.2647 10.7836 16.683 9.92946 15.8289C9.07532 14.9747 8.49364 13.8865 8.25798 12.7018C8.02232 11.517 8.14327 10.289 8.60553 9.17302C9.06779 8.05702 9.8506 7.10317 10.855 6.43207C11.8593 5.76098 13.0401 5.40278 14.2481 5.40278C15.8679 5.40278 17.4213 6.04624 18.5667 7.19161C19.7121 8.33699 20.3556 9.89044 20.3556 11.5102ZM20.89 0.00683594H7.60622L0.964355 11.5102L7.60622 23.0136H20.89L27.5318 11.5102L20.89 0.00683594Z" fill="#5A8EA1"/>
</svg>
