<svg width="24" height="25" viewBox="0 0 24 25" fill="none" xmlns="http://www.w3.org/2000/svg">
<path d="M23.1815 0.707675C22.354 -0.0191127 19.0468 0.777911 18.1062 0.890899C14.9885 1.23215 11.9169 1.90996 8.94503 2.91247C5.87603 3.99654 3.37197 5.56005 1.92145 8.59241C1.03816 10.486 0.695874 12.587 0.932471 14.663C1.16907 16.739 1.97532 18.7091 3.26204 20.3554C3.93081 19.6439 4.88968 18.9262 5.41797 18.1078C6.12339 17.0177 5.73862 14.8403 5.79053 13.4723C5.8058 13.0692 5.95543 7.49001 6.22721 7.47169C6.55702 7.45031 7.40901 12.9257 7.71438 14.9655C7.7258 15.0305 7.75455 15.0912 7.79758 15.1412C7.84062 15.1911 7.89634 15.2286 7.95889 15.2495C8.02143 15.2705 8.08846 15.2742 8.15292 15.2602C8.21738 15.2462 8.27688 15.2151 8.32513 15.1701C9.05191 14.4515 9.78176 13.739 10.5147 13.0325C11.0155 12.547 11.2659 12.3577 11.4002 11.7255C11.5346 11.0934 11.4338 10.2323 11.4766 9.5635C11.501 9.16651 11.782 4.14007 12.1423 4.11564C12.5026 4.09121 13.2569 8.03358 13.5378 9.50853C13.5514 9.55801 13.5772 9.60329 13.6128 9.64018C13.6485 9.67707 13.6928 9.70438 13.7418 9.7196C13.7908 9.73481 13.8429 9.73744 13.8931 9.72724C13.9434 9.71703 13.9903 9.69433 14.0295 9.66122C15.5136 8.22291 20.137 3.72782 20.3538 3.92936C20.5706 4.13091 16.732 9.29171 15.5014 10.9529C15.4737 10.9962 15.4574 11.0457 15.454 11.097C15.4505 11.1482 15.46 11.1995 15.4817 11.246C15.5033 11.2926 15.5363 11.333 15.5776 11.3634C15.619 11.3938 15.6673 11.4134 15.7182 11.4202C17.2176 11.5026 21.2149 11.7622 21.2485 12.092C21.2821 12.4218 16.2954 13.399 15.935 13.4692C15.3243 13.5944 14.6433 13.6372 14.0326 13.796C13.2508 14.0006 13.1164 14.193 12.6248 14.877C12.014 15.6913 11.4033 16.5056 10.7925 17.32C10.7514 17.3743 10.7261 17.4389 10.7194 17.5067C10.7128 17.5745 10.7249 17.6428 10.7546 17.7041C10.7843 17.7654 10.8304 17.8173 10.8878 17.8541C10.9451 17.8908 11.0115 17.911 11.0796 17.9124C13.1439 17.946 18.6803 18.0712 18.7139 18.401C18.7292 18.6758 13.2172 19.5553 12.8202 19.6225C11.559 19.8393 9.42752 19.7538 8.41674 20.4195C7.63804 20.9325 6.92041 22.3067 6.32799 23.0335C8.0699 24.0615 10.0555 24.6037 12.0782 24.6037C14.1008 24.6037 16.0864 24.0615 17.8283 23.0335C20.7599 21.2837 22.1036 18.6239 22.8181 15.3992C23.4613 12.2729 23.7481 9.08379 23.6732 5.89291C23.6732 4.73249 23.6304 3.56902 23.5144 2.41471C23.4686 2.02689 23.5083 0.994726 23.1815 0.707675Z" fill="#63BB5B"/>
</svg>
