<svg width="23" height="23" viewBox="0 0 23 23" fill="none" xmlns="http://www.w3.org/2000/svg">
<path d="M17.4824 21.3427C12.1231 24.2102 4.81553 22.8879 1.6427 17.4339C-1.25834 12.4533 0.320436 5.45414 5.17587 2.29963C10.0313 -0.854872 17.116 0.568167 20.4751 5.19457C24.393 10.5875 21.4584 18.6737 14.5478 19.3181C11.6406 19.5868 8.44031 18.2401 7.03559 15.562C5.78356 13.1495 6.38515 9.64386 8.67239 8.04981C10.9596 6.45576 14.6608 6.74892 15.8212 9.57973C16.3128 10.7829 16.1266 12.4228 15.1921 13.3755C14.4042 14.1603 12.572 14.4657 11.72 13.5496C11.4146 13.2137 11.0818 12.5877 11.6742 12.3495C11.9063 12.2579 12.4987 12.6548 12.7766 12.6548C14.0561 12.6365 14.4623 11.0211 13.8057 10.0714C13.0087 8.92318 11.2467 9.00868 10.2451 9.78738C9.02357 10.7401 8.87088 12.3189 9.39918 13.6962C10.4252 16.356 13.763 16.9575 16.038 15.4368C18.2489 13.9557 18.5848 10.3981 17.4641 8.14753C15.9372 5.06021 11.717 4.15325 8.67239 5.25564C5.62782 6.35804 3.85971 9.311 3.78642 12.4563C3.76151 13.8624 4.07273 15.254 4.69418 16.5155C5.31563 17.777 6.22934 18.8718 7.35929 19.709C10.3336 21.8832 14.0195 21.3427 17.4824 21.3427Z" fill="#F97176"/>
</svg>
